<?xml version="1.0" encoding="utf-8"?>
<svg width="1.18056in" height="1.29167in" viewBox="0 0 85 93" xmlns="http://www.w3.org/2000/svg">
  <path id="Selection" stroke="black" d="M 54.893 22.317 C 54.305 25.065 53.708 27.617 50.876 28.962 C 46.721 30.925 43.566 26.39 44.879 22.317 C 47.123 15.398 54.815 13.896 59.371 19.481 C 63.506 24.535 61.899 33.28 57.5 37.687 C 49.22 45.98 41.459 39.179 35.296 38.384 C 32.621 38.03 28.064 38.904 25.497 39.777 C 13.748 43.743 13.337 55.343 11.093 60.594 C 9.309 64.775 6.164 66.532 3.861 71.39 C 0.814 77.819 1 85.082 1 92.001 C 1 92.001 3.94 92.001 3.94 92.001 C 4.381 82.903 6.762 74.266 16.678 72.372 C 16.678 72.372 14.16 80.224 14.16 80.224 C 13.484 84.365 18.677 91.981 18.736 92.001 C 19.5 92.001 19.755 92.001 20.597 92.001 C 20.01 89.076 18.657 85.033 19.412 82.186 C 21.509 74.256 38.578 59.318 46.839 66.787 C 52.512 71.92 50.974 84.778 50.974 92.001 C 50.974 92.001 55.873 92.001 55.873 92.001 C 55.873 83.855 56.549 75.306 58.813 67.465 C 58.813 67.465 61.752 92.001 61.752 92.001 C 61.752 92.001 65.672 92.001 65.672 92.001 C 65.672 70.311 70.003 72.009 72.247 54.706 C 73.04 48.62 72.168 44.793 71.718 39.002 C 70.993 29.58 76.127 31.504 82.33 33.113 C 84.309 25.242 80.115 24.604 76.294 19.098 C 73.815 15.535 73.501 10.442 65.672 5.858 C 54.746 -0.541 39.646 4.533 35.109 16.428 C 31.474 25.978 35.874 38.119 47.054 38.884 C 56.461 39.532 63.663 27.597 54.893 22.317 Z M 70.885 20.423 C 71.855 20.452 72.227 20.825 72.227 20.825 C 72.227 20.825 72.776 21.247 72.776 22.082 C 72.776 23.044 72.462 23.426 72.462 23.426 C 72.021 23.731 71.678 23.907 71.169 23.966 C 70.15 24.094 69.738 23.956 69.425 23.564 C 69.052 23.181 68.837 22.955 68.837 22.033 C 68.827 21.463 69.003 21.306 69.356 20.767 C 69.356 20.767 69.777 20.394 70.885 20.423 Z M 22.371 92.06 M 25.007 55.932" style="fill: rgb(220, 213, 226); stroke-width: 2px;"/>
</svg>